<svg width="14" height="11" viewBox="0 0 14 11" fill="none" xmlns="http://www.w3.org/2000/svg">
<path d="M3.6665 4.30298C3.6665 3.94005 3.85383 3.59199 4.18727 3.33537C4.52071 3.07874 4.97295 2.93457 5.4445 2.93457H11.2218C11.4553 2.93457 11.6865 2.96997 11.9022 3.03873C12.118 3.1075 12.314 3.2083 12.4791 3.33537C12.6442 3.46244 12.7751 3.61329 12.8645 3.77931C12.9538 3.94533 12.9998 4.12328 12.9998 4.30298V8.74941C12.9998 8.92911 12.9538 9.10705 12.8645 9.27308C12.7751 9.4391 12.6442 9.58995 12.4791 9.71702C12.314 9.84409 12.118 9.94488 11.9022 10.0137C11.6865 10.0824 11.4553 10.1178 11.2218 10.1178H5.4445C5.21101 10.1178 4.97981 10.0824 4.76409 10.0137C4.54838 9.94488 4.35237 9.84409 4.18727 9.71702C4.02217 9.58995 3.8912 9.4391 3.80185 9.27308C3.71249 9.10705 3.6665 8.92911 3.6665 8.74941V4.30298Z" stroke="#DADADA" stroke-width="1.5" stroke-linecap="round" stroke-linejoin="round"/>
<path d="M1.67467 7.93063C1.47023 7.84093 1.30018 7.71128 1.18172 7.55479C1.06325 7.3983 1.00057 7.22051 1 7.03939V1.9085C1 1.3441 1.6 0.882324 2.33333 0.882324H9C9.5 0.882324 9.772 1.07986 10 1.39541" stroke="#DADADA" stroke-width="1.5" stroke-linecap="round" stroke-linejoin="round"/>
</svg>
