<svg width="20" height="20" viewBox="0 0 20 20" fill="none" xmlns="http://www.w3.org/2000/svg">
<path fill-rule="evenodd" clip-rule="evenodd" d="M17.5 6.6665V17.494C17.5016 17.715 17.4152 17.9276 17.2601 18.085C17.1049 18.2423 16.8935 18.3316 16.6725 18.3332H3.3275C2.87081 18.3332 2.50046 17.9632 2.5 17.5065V2.49317C2.5 2.04567 2.87417 1.6665 3.335 1.6665H12.4975L17.5 6.6665ZM15.8333 7.49984H11.6667V3.33317H4.16667V16.6665H15.8333V7.49984ZM9.16667 5.83317H6.66667V7.49984H9.16667V5.83317ZM6.66667 9.1665H13.3333V10.8332H6.66667V9.1665ZM13.3333 12.4998H6.66667V14.1665H13.3333V12.4998Z" fill="black"/>
</svg>
