<svg width="30" height="30" viewBox="0 0 30 30" fill="none" xmlns="http://www.w3.org/2000/svg">
<g clip-path="url(#clip0_6563_14216)">
<path d="M5.45392 29.8511V27.8655C5.45392 27.1042 5.09368 26.6079 4.47622 26.6079C4.16755 26.6079 3.8331 26.7403 3.60153 27.1705C3.42153 26.8065 3.16431 26.6079 2.77841 26.6079C2.52106 26.6079 2.26396 26.7071 2.05806 27.0712V26.6741H1.51782V29.8511H2.05806V28.0971C2.05806 27.5346 2.28962 27.2697 2.64985 27.2697C3.00985 27.2697 3.19009 27.5676 3.19009 28.0971V29.8511H3.73032V28.0971C3.73032 27.5346 3.98743 27.2697 4.32188 27.2697C4.68212 27.2697 4.86212 27.5676 4.86212 28.0971V29.8511H5.45392ZM13.4544 26.6741H12.5799V25.7144H12.0396V26.6741H11.5508V27.3027H12.0395V28.759C12.0395 29.4872 12.2711 29.9173 12.8885 29.9173C13.1201 29.9173 13.3772 29.8181 13.5574 29.6857L13.403 29.0899C13.2486 29.2223 13.0686 29.2554 12.94 29.2554C12.6827 29.2554 12.5799 29.0569 12.5799 28.7259V27.3027H13.4544V26.6741ZM18.0336 26.6078C17.725 26.6078 17.5192 26.8065 17.3905 27.0712V26.6741H16.8503V29.8511H17.3905V28.064C17.3905 27.5346 17.5705 27.2367 17.905 27.2367C18.0079 27.2367 18.1365 27.2699 18.2394 27.3029L18.3938 26.6411C18.2909 26.6079 18.1365 26.6079 18.0336 26.6079V26.6078ZM11.1135 26.9388C10.8561 26.7071 10.496 26.6079 10.1101 26.6079C9.49278 26.6079 9.08122 27.005 9.08122 27.6338C9.08122 28.1634 9.38989 28.4611 9.93013 28.5605L10.1874 28.5936C10.4704 28.6597 10.6247 28.759 10.6247 28.9245C10.6247 29.1561 10.4189 29.3216 10.0587 29.3216C9.69856 29.3216 9.41556 29.1561 9.23544 28.9907L8.97821 29.5202C9.26122 29.7849 9.64712 29.9173 10.0329 29.9173C10.7533 29.9173 11.1649 29.4872 11.1649 28.8914C11.1649 28.3288 10.8305 28.0309 10.3159 27.9317L10.0587 27.8985C9.82712 27.8653 9.64712 27.7993 9.64712 27.6008C9.64712 27.3691 9.82712 27.2367 10.1101 27.2367C10.4189 27.2367 10.7276 27.4021 10.8819 27.5014L11.1135 26.9388ZM25.4684 26.6079C25.1596 26.6079 24.9538 26.8065 24.8251 27.0712V26.6741H24.2849V29.8511H24.8251V28.064C24.8251 27.5346 25.0052 27.2367 25.3396 27.2367C25.4426 27.2367 25.5713 27.2699 25.6741 27.3029L25.8285 26.6411C25.7256 26.6079 25.5713 26.6079 25.4684 26.6079ZM18.5739 28.2626C18.5739 29.2223 19.0883 29.9173 19.8859 29.9173C20.246 29.9173 20.5033 29.8181 20.7605 29.5533L20.5033 28.9907C20.2975 29.1893 20.0917 29.2885 19.8601 29.2885C19.4228 29.2885 19.1141 28.8914 19.1141 28.2626C19.1141 27.667 19.4228 27.2697 19.8601 27.2367C20.0917 27.2367 20.2975 27.3359 20.5033 27.5346L20.7605 26.972C20.5033 26.7071 20.246 26.6079 19.8859 26.6079C19.0883 26.6079 18.5739 27.3029 18.5739 28.2626ZM23.5647 28.2626V26.6741H23.0244V27.0712C22.8443 26.7734 22.5871 26.6079 22.2526 26.6079C21.5581 26.6079 21.0178 27.3029 21.0178 28.2626C21.0178 29.2223 21.5581 29.9173 22.2526 29.9173C22.6127 29.9173 22.8701 29.7519 23.0244 29.454V29.8511H23.5647V28.2626ZM21.5837 28.2626C21.5837 27.7 21.8667 27.2367 22.3297 27.2367C22.7671 27.2367 23.0759 27.667 23.0759 28.2626C23.0759 28.8252 22.7671 29.2885 22.3297 29.2885C21.8667 29.2553 21.5837 28.8252 21.5837 28.2626ZM15.1267 26.6079C14.4063 26.6079 13.8918 27.2697 13.8918 28.2626C13.8918 29.2554 14.4062 29.9173 15.1524 29.9173C15.5125 29.9173 15.8727 29.7849 16.1557 29.4872L15.8984 28.9907C15.6926 29.1893 15.4354 29.3216 15.1781 29.3216C14.8437 29.3216 14.5092 29.1231 14.432 28.5603H16.2586V28.2958C16.2844 27.2697 15.8213 26.6079 15.1266 26.6079H15.1267ZM15.1267 27.2035C15.461 27.2035 15.6927 27.4684 15.744 27.9648H14.4578C14.5092 27.5346 14.7408 27.2035 15.1267 27.2035ZM28.5297 28.2626V25.4165H27.9894V27.0712C27.8093 26.7734 27.5521 26.6079 27.2176 26.6079C26.5231 26.6079 25.9828 27.3029 25.9828 28.2626C25.9828 29.2223 26.5231 29.9173 27.2176 29.9173C27.5779 29.9173 27.8351 29.7519 27.9894 29.454V29.8511H28.5297V28.2626ZM26.5488 28.2626C26.5488 27.7 26.8317 27.2367 27.2949 27.2367C27.7322 27.2367 28.0409 27.667 28.0409 28.2626C28.0409 28.8252 27.7322 29.2885 27.2949 29.2885C26.8317 29.2553 26.5488 28.8252 26.5488 28.2626ZM8.48942 28.2626V26.6741H7.94919V27.0712C7.76907 26.7734 7.51185 26.6079 7.17739 26.6079C6.48282 26.6079 5.94259 27.3029 5.94259 28.2626C5.94259 29.2223 6.48282 29.9173 7.17739 29.9173C7.53763 29.9173 7.79485 29.7519 7.94919 29.454V29.8511H8.48942V28.2626ZM6.48282 28.2626C6.48282 27.7 6.76583 27.2367 7.22884 27.2367C7.66618 27.2367 7.97497 27.667 7.97497 28.2626C7.97497 28.8252 7.66618 29.2885 7.22884 29.2885C6.76583 29.2553 6.48282 28.8252 6.48282 28.2626Z" fill="#1F1F1F"/>
<path d="M10.9333 2.54834H19.0369V21.2796H10.9333V2.54834Z" fill="#FF5F00"/>
<path d="M11.4479 11.9139C11.4479 8.10814 12.8371 4.73246 14.9722 2.54819C13.4031 0.959698 11.4223 0 9.26133 0C4.14176 0 0 5.32809 0 11.9139C0 18.4996 4.14176 23.8278 9.26121 23.8278C11.4221 23.8278 13.403 22.8681 14.9722 21.2795C12.8371 19.1284 11.4479 15.7197 11.4479 11.9139Z" fill="#EB001B"/>
<path d="M29.9703 11.9139C29.9703 18.4996 25.8285 23.8278 20.7091 23.8278C18.5481 23.8278 16.5673 22.8681 14.998 21.2795C17.159 19.0954 18.5225 15.7197 18.5225 11.9139C18.5225 8.10814 17.1332 4.73246 14.998 2.54819C16.5672 0.959698 18.5481 0 20.7091 0C25.8285 0 29.9704 5.36126 29.9704 11.9139H29.9703Z" fill="#F79E1B"/>
</g>
<defs>
<clipPath id="clip0_6563_14216">
<rect width="30" height="30" fill="white"/>
</clipPath>
</defs>
</svg>
