<svg width="15" height="15" viewBox="0 0 15 15" fill="none" xmlns="http://www.w3.org/2000/svg">
<path fill-rule="evenodd" clip-rule="evenodd" d="M12.2976 5.1665V12.7458C12.2987 12.9005 12.2385 13.0493 12.1303 13.1594C12.0221 13.2696 11.8748 13.3321 11.7207 13.3332H2.41699C2.0986 13.3332 1.84041 13.0742 1.84009 12.7545V2.24517C1.84009 1.93192 2.10094 1.6665 2.42222 1.6665H8.81L12.2976 5.1665ZM11.1356 5.74984H8.23078V2.83317H3.00203V12.1665H11.1356V5.74984ZM6.48786 4.58317H4.74495V5.74984H6.48786V4.58317ZM4.74495 6.9165H9.39272V8.08317H4.74495V6.9165ZM9.39272 9.24984H4.74495V10.4165H9.39272V9.24984Z" fill="black"/>
</svg>
