<svg width="17" height="17" viewBox="0 0 17 17" fill="none" xmlns="http://www.w3.org/2000/svg">
<path fill-rule="evenodd" clip-rule="evenodd" d="M5.24498 7.16653H13.8766C14.2433 7.16653 14.5405 7.46501 14.5405 7.8332V14.4999C14.5405 14.8681 14.2433 15.1665 13.8766 15.1665H3.25308C2.88638 15.1665 2.58911 14.8681 2.58911 14.4999V7.8332C2.58911 7.46501 2.88638 7.16653 3.25308 7.16653H3.91705V6.49986C3.91627 4.33497 5.39846 2.4538 7.49689 1.95637C9.59533 1.45894 11.759 2.47588 12.7226 4.41253L11.5347 5.00853C10.8465 3.62503 9.30085 2.89856 7.80184 3.25398C6.30283 3.6094 5.24416 4.95336 5.24498 6.49986V7.16653ZM3.91705 8.49986V13.8332H13.2126V8.49986H3.91705ZM9.89276 10.4999H7.23688V11.8332H9.89276V10.4999Z" fill="black"/>
</svg>
