<svg width="60" height="60" viewBox="0 0 60 60" fill="none" xmlns="http://www.w3.org/2000/svg">
<path d="M30 17.8947C31.4537 17.8947 32.6316 19.0726 32.6316 20.5263V32.1052C32.6316 33.5589 31.4537 34.7368 30 34.7368C28.5463 34.7368 27.3684 33.5589 27.3684 32.1052V20.5263C27.3684 19.0726 28.5463 17.8947 30 17.8947Z" fill="#FF5252" stroke="black" stroke-width="0.5"/>
<circle cx="30" cy="39.4734" r="2.88158" transform="rotate(-180 30 39.4734)" fill="#FF5252" stroke="black" stroke-width="0.5"/>
<path d="M0.526316 30.5263C0.235789 30.5263 0 30.2905 0 30C0 13.4579 13.4579 0 30 0C30.2905 0 30.5263 0.235789 30.5263 0.526316C30.5263 0.816842 30.2905 1.05263 30 1.05263C14.0389 1.05263 1.05263 14.0389 1.05263 30C1.05263 30.2905 0.816842 30.5263 0.526316 30.5263Z" fill="#263238"/>
<path d="M33.1578 1.05263H32.1052C31.8146 1.05263 31.5789 0.816842 31.5789 0.526316C31.5789 0.235789 31.8146 0 32.1052 0H33.1578C33.4483 0 33.6841 0.235789 33.6841 0.526316C33.6841 0.816842 33.4483 1.05263 33.1578 1.05263Z" fill="#263238"/>
<path d="M29.9999 59.9999C29.7094 59.9999 29.4736 59.7642 29.4736 59.4736C29.4736 59.1831 29.7094 58.9473 29.9999 58.9473C45.961 58.9473 58.9473 45.961 58.9473 29.9999C58.9473 29.7094 59.1831 29.4736 59.4736 29.4736C59.7642 29.4736 59.9999 29.7094 59.9999 29.9999C59.9999 46.5421 46.5421 59.9999 29.9999 59.9999Z" fill="#263238"/>
<path d="M27.8946 59.9999H26.842C26.5515 59.9999 26.3157 59.7641 26.3157 59.4736C26.3157 59.1831 26.5515 58.9473 26.842 58.9473H27.8946C28.1851 58.9473 28.4209 59.1831 28.4209 59.4736C28.4209 59.7641 28.1851 59.9999 27.8946 59.9999Z" fill="#263238"/>
<path fill-rule="evenodd" clip-rule="evenodd" d="M4.73682 30C4.73682 16.0473 16.0473 4.73682 30 4.73682C43.9526 4.73682 55.2631 16.0473 55.2631 30C55.2631 43.9526 43.9526 55.2631 30 55.2631C16.0473 55.2631 4.73682 43.9526 4.73682 30ZM9.99997 30C9.99997 41.0452 18.9547 50 30 50C41.0452 50 50 41.0452 50 30C50 18.9547 41.0452 9.99997 30 9.99997C18.9547 9.99997 9.99997 18.9547 9.99997 30Z" fill="#FF5252"/>
<path fill-rule="evenodd" clip-rule="evenodd" d="M4.21045 29.9999C4.21045 44.221 15.7789 55.7894 29.9999 55.7894C44.221 55.7894 55.7894 44.221 55.7894 29.9999C55.7894 15.7789 44.221 4.21045 29.9999 4.21045C15.7789 4.21045 4.21045 15.7789 4.21045 29.9999ZM5.26308 29.9999C5.26308 16.3599 16.3599 5.26308 29.9999 5.26308C43.6399 5.26308 54.7368 16.3599 54.7368 29.9999C54.7368 43.6399 43.6399 54.7368 29.9999 54.7368C16.3599 54.7368 5.26308 43.6399 5.26308 29.9999ZM29.9999 50.5262C18.682 50.5262 9.47361 41.3178 9.47361 29.9999C9.47361 18.682 18.682 9.47361 29.9999 9.47361C41.3178 9.47361 50.5262 18.682 50.5262 29.9999C50.5262 41.3178 41.3178 50.5262 29.9999 50.5262ZM10.5262 29.9999C10.5262 19.262 19.262 10.5262 29.9999 10.5262C40.7378 10.5262 49.4736 19.262 49.4736 29.9999C49.4736 40.7378 40.7378 49.4736 29.9999 49.4736C19.262 49.4736 10.5262 40.7378 10.5262 29.9999Z" fill="#263238"/>
<path d="M52.1053 3.1581H47.8947C47.6042 3.1581 47.3684 2.92231 47.3684 2.63178C47.3684 2.34126 47.6042 2.10547 47.8947 2.10547H52.1053C52.3958 2.10547 52.6316 2.34126 52.6316 2.63178C52.6316 2.92231 52.3958 3.1581 52.1053 3.1581Z" fill="#263238"/>
<path d="M49.9999 5.26316C49.7094 5.26316 49.4736 5.02737 49.4736 4.73684V0.526316C49.4736 0.235789 49.7094 0 49.9999 0C50.2905 0 50.5263 0.235789 50.5263 0.526316V4.73684C50.5263 5.02737 50.2905 5.26316 49.9999 5.26316Z" fill="#263238"/>
<path d="M59.4737 9.9999H55.2631C54.9726 9.9999 54.7368 9.76411 54.7368 9.47358C54.7368 9.18306 54.9726 8.94727 55.2631 8.94727H59.4737C59.7642 8.94727 60 9.18306 60 9.47358C60 9.76411 59.7642 9.9999 59.4737 9.9999Z" fill="#263238"/>
<path d="M57.3684 12.1054C57.0778 12.1054 56.842 11.8697 56.842 11.5791V7.3686C56.842 7.07807 57.0778 6.84229 57.3684 6.84229C57.6589 6.84229 57.8947 7.07807 57.8947 7.3686V11.5791C57.8947 11.8697 57.6589 12.1054 57.3684 12.1054Z" fill="#263238"/>
</svg>
