<svg width="14" height="14" viewBox="0 0 14 14" fill="none" xmlns="http://www.w3.org/2000/svg">
<path fill-rule="evenodd" clip-rule="evenodd" d="M6.9676 7.5835C5.72223 7.5835 4.57146 6.9164 3.94878 5.8335C3.3261 4.75059 3.3261 3.4164 3.94878 2.3335C4.57146 1.25059 5.72223 0.583496 6.9676 0.583496C8.89277 0.583496 10.4534 2.1505 10.4534 4.0835C10.4534 6.01649 8.89277 7.5835 6.9676 7.5835ZM11.6154 12.8335H10.4534V11.6668C10.4534 10.7003 9.6731 9.91683 8.71051 9.91683H5.22468C4.2621 9.91683 3.48177 10.7003 3.48177 11.6668V12.8335H2.31982V11.6668C2.31982 10.056 3.62037 8.75016 5.22468 8.75016H8.71051C10.3148 8.75016 11.6154 10.056 11.6154 11.6668V12.8335ZM9.29148 4.0835C9.29148 5.37216 8.25104 6.41683 6.9676 6.41683C5.68415 6.41683 4.64371 5.37216 4.64371 4.0835C4.64371 2.79483 5.68415 1.75016 6.9676 1.75016C8.25104 1.75016 9.29148 2.79483 9.29148 4.0835Z" fill="black"/>
</svg>
