<svg width="35" height="41" viewBox="0 0 35 41" fill="none" xmlns="http://www.w3.org/2000/svg">
<path fill-rule="evenodd" clip-rule="evenodd" d="M5.6875 17.3978V13.3373C5.6875 9.80006 6.93203 6.40766 9.1473 3.90642C11.3626 1.40518 14.3671 0 17.5 0C20.6329 0 23.6374 1.40518 25.8527 3.90642C28.068 6.40766 29.3125 9.80006 29.3125 13.3373V17.3978C31.2638 17.5618 32.5325 17.9768 33.4618 19.026C35 20.7608 35 23.5567 35 29.1446C35 34.7324 35 37.5283 33.4618 39.2632C31.9253 41 29.449 41 24.5 41H10.5C5.551 41 3.07475 41 1.53825 39.2632C-1.04308e-07 37.5283 0 34.7324 0 29.1446C0 23.5567 -1.04308e-07 20.7608 1.53825 19.026C2.46575 17.9768 3.73625 17.5618 5.6875 17.3978ZM8.3125 13.3373C8.3125 10.5861 9.28047 7.94759 11.0035 6.00218C12.7264 4.05677 15.0633 2.96386 17.5 2.96386C19.9367 2.96386 22.2736 4.05677 23.9965 6.00218C25.7195 7.94759 26.6875 10.5861 26.6875 13.3373V17.2971C26.0173 17.2892 25.2892 17.2892 24.5 17.2892H10.5C9.709 17.2892 8.98275 17.2892 8.3125 17.2971V13.3373ZM10.5 31.1205C10.9641 31.1205 11.4092 30.9123 11.7374 30.5418C12.0656 30.1712 12.25 29.6686 12.25 29.1446C12.25 28.6205 12.0656 28.118 11.7374 27.7474C11.4092 27.3769 10.9641 27.1687 10.5 27.1687C10.0359 27.1687 9.59075 27.3769 9.26256 27.7474C8.93437 28.118 8.75 28.6205 8.75 29.1446C8.75 29.6686 8.93437 30.1712 9.26256 30.5418C9.59075 30.9123 10.0359 31.1205 10.5 31.1205ZM17.5 31.1205C17.9641 31.1205 18.4092 30.9123 18.7374 30.5418C19.0656 30.1712 19.25 29.6686 19.25 29.1446C19.25 28.6205 19.0656 28.118 18.7374 27.7474C18.4092 27.3769 17.9641 27.1687 17.5 27.1687C17.0359 27.1687 16.5908 27.3769 16.2626 27.7474C15.9344 28.118 15.75 28.6205 15.75 29.1446C15.75 29.6686 15.9344 30.1712 16.2626 30.5418C16.5908 30.9123 17.0359 31.1205 17.5 31.1205ZM26.25 29.1446C26.25 29.6686 26.0656 30.1712 25.7374 30.5418C25.4093 30.9123 24.9641 31.1205 24.5 31.1205C24.0359 31.1205 23.5908 30.9123 23.2626 30.5418C22.9344 30.1712 22.75 29.6686 22.75 29.1446C22.75 28.6205 22.9344 28.118 23.2626 27.7474C23.5908 27.3769 24.0359 27.1687 24.5 27.1687C24.9641 27.1687 25.4093 27.3769 25.7374 27.7474C26.0656 28.118 26.25 28.6205 26.25 29.1446Z" fill="#4CAF50"/>
</svg>
